# xmcd CD database file
#
# Track frame offsets:
#	150
#	33839
#	58598
#	87489
#	125977
#	155223
#	178653
#	214837
#
# Disc length: 3123 seconds
#
# Revision: 0
# Processed by: cddbd v1.5.1PL2 Copyright (c) Steve Scherf et al.
# Submitted via: CDex 1.51
#
DISCID=750c3108
DTITLE=organissimo featuring Arno Marsh - Live on Blue Lake Public Radio
DYEAR=2005
DGENRE=Jazz
TTITLE0=Third Right On The Left
TTITLE1=Moonlight in Vermont
TTITLE2=My Sweet Potato Pie
TTITLE3=Summertime
TTITLE4=Israel
TTITLE5=Smoking Section
TTITLE6=Brother Ray
TTITLE7=Blue Lou
EXTD=YEAR: 2005
EXTT0=
EXTT1=
EXTT2=
EXTT3=
EXTT4=
EXTT5=
EXTT6=
EXTT7=
PLAYORDER=
